<svg fill="none" height="27" viewBox="0 0 27 27" width="27" xmlns="http://www.w3.org/2000/svg">
    <g clip-path="url(#clip0)">
        <path
            d="M26.8498 10.2174C26.4516 8.99198 25.3669 8.20012 24.0864 8.20012H18.6915C18.3338 8.20012 18.0358 7.9942 17.9328 7.67737L16.2651 2.51135C15.8685 1.29092 14.7832 0.50238 13.5 0.50238C12.2168 0.50238 11.1315 1.29092 10.7343 2.51325L9.06781 7.67547C8.96424 7.9942 8.66624 8.20012 8.30849 8.20012H2.9135C1.63301 8.20012 0.54826 8.99193 0.150116 10.2174C-0.249611 11.4476 0.164354 12.7309 1.20459 13.4866L5.56926 16.6578C5.84991 16.8616 5.96651 17.2204 5.85924 17.5504L4.1921 22.6812C3.79554 23.9017 4.21014 25.1776 5.24826 25.9318C5.76733 26.309 6.36222 26.4975 6.95712 26.4975C7.55207 26.4975 8.14702 26.309 8.66603 25.9318L13.0307 22.7607C13.3113 22.5568 13.6885 22.5567 13.9692 22.7607L18.3338 25.9318C19.372 26.686 20.7135 26.6861 21.7516 25.9318C22.7897 25.1776 23.2043 23.9017 22.8078 22.6812L21.6665 19.1687C21.4865 18.6148 20.8915 18.3117 20.3378 18.4917C19.7839 18.6716 19.4807 19.2665 19.6607 19.8204L20.802 23.3329C20.9683 23.8448 20.622 24.1456 20.5119 24.2256C20.4018 24.3056 20.0088 24.542 19.5734 24.2256L15.2088 21.0546C14.1867 20.3119 12.8132 20.3118 11.791 21.0545L7.4264 24.2256C6.99092 24.542 6.5979 24.3056 6.48784 24.2256C6.37773 24.1456 6.03153 23.8448 6.1978 23.3329L7.86494 18.202C8.25544 17.0004 7.83098 15.6942 6.80883 14.9515L2.44417 11.7804C2.00542 11.4617 2.11252 11.0023 2.15582 10.8691C2.19853 10.7377 2.3793 10.3091 2.91345 10.3091H8.30839C9.57707 10.3091 10.6882 9.51268 11.0741 8.32532L12.7406 3.16315C12.9069 2.6512 13.3639 2.61144 13.4999 2.61144C13.636 2.61144 14.0929 2.6512 14.2586 3.16125L15.9264 8.32721C16.3116 9.51268 17.4227 10.3091 18.6915 10.3091H24.0864C24.6206 10.3091 24.8013 10.7377 24.844 10.8691C24.8873 11.0023 24.9944 11.4617 24.5556 11.7804L21.5796 13.9427C21.1084 14.2851 21.004 14.9444 21.3463 15.4157C21.6886 15.8868 22.348 15.9912 22.8193 15.649L25.7953 13.4867C26.8356 12.7309 27.2495 11.4476 26.8498 10.2174Z"
            fill="#FF6F14" />
    </g>
    <defs>
        <clipPath id="clip0">
            <rect fill="white" height="27" width="27" />
        </clipPath>
    </defs>
</svg>
